<svg width="48" height="48" viewBox="0 0 48 48" fill="none" xmlns="http://www.w3.org/2000/svg">
<path d="M19.5 24C19.5 22.8065 19.9741 21.6619 20.818 20.818C21.6619 19.9741 22.8065 19.5 24 19.5C25.1935 19.5 26.3381 19.9741 27.182 20.818C28.0259 21.6619 28.5 22.8065 28.5 24C28.5 25.1935 28.0259 26.3381 27.182 27.182C26.3381 28.0259 25.1935 28.5 24 28.5C22.8065 28.5 21.6619 28.0259 20.818 27.182C19.9741 26.3381 19.5 25.1935 19.5 24Z" fill="#D4AF37"/>
<path fill-rule="evenodd" clip-rule="evenodd" d="M4 24C4 27.28 4.85 28.382 6.55 30.592C9.944 35 15.636 40 24 40C32.364 40 38.056 35 41.45 30.592C43.15 28.384 44 27.278 44 24C44 20.72 43.15 19.618 41.45 17.408C38.056 13 32.364 8 24 8C15.636 8 9.944 13 6.55 17.408C4.85 19.62 4 20.722 4 24ZM24 16.5C22.0109 16.5 20.1032 17.2902 18.6967 18.6967C17.2902 20.1032 16.5 22.0109 16.5 24C16.5 25.9891 17.2902 27.8968 18.6967 29.3033C20.1032 30.7098 22.0109 31.5 24 31.5C25.9891 31.5 27.8968 30.7098 29.3033 29.3033C30.7098 27.8968 31.5 25.9891 31.5 24C31.5 22.0109 30.7098 20.1032 29.3033 18.6967C27.8968 17.2902 25.9891 16.5 24 16.5Z" fill="#D4AF37"/>
</svg>
