<svg width="49" height="48" viewBox="0 0 49 48" fill="none" xmlns="http://www.w3.org/2000/svg">
<path d="M20 24C20 22.8065 20.4741 21.6619 21.318 20.818C22.1619 19.9741 23.3065 19.5 24.5 19.5C25.6935 19.5 26.8381 19.9741 27.682 20.818C28.5259 21.6619 29 22.8065 29 24C29 25.1935 28.5259 26.3381 27.682 27.182C26.8381 28.0259 25.6935 28.5 24.5 28.5C23.3065 28.5 22.1619 28.0259 21.318 27.182C20.4741 26.3381 20 25.1935 20 24Z" fill="black"/>
<path fill-rule="evenodd" clip-rule="evenodd" d="M4.5 24C4.5 27.28 5.35 28.382 7.05 30.592C10.444 35 16.136 40 24.5 40C32.864 40 38.556 35 41.95 30.592C43.65 28.384 44.5 27.278 44.5 24C44.5 20.72 43.65 19.618 41.95 17.408C38.556 13 32.864 8 24.5 8C16.136 8 10.444 13 7.05 17.408C5.35 19.62 4.5 20.722 4.5 24ZM24.5 16.5C22.5109 16.5 20.6032 17.2902 19.1967 18.6967C17.7902 20.1032 17 22.0109 17 24C17 25.9891 17.7902 27.8968 19.1967 29.3033C20.6032 30.7098 22.5109 31.5 24.5 31.5C26.4891 31.5 28.3968 30.7098 29.8033 29.3033C31.2098 27.8968 32 25.9891 32 24C32 22.0109 31.2098 20.1032 29.8033 18.6967C28.3968 17.2902 26.4891 16.5 24.5 16.5Z" fill="black"/>
</svg>
