<svg width="163" height="48" viewBox="0 0 163 48" fill="none" xmlns="http://www.w3.org/2000/svg">
<path d="M19.5 24C19.5 22.8065 19.9741 21.6619 20.818 20.818C21.6619 19.9741 22.8065 19.5 24 19.5C25.1935 19.5 26.3381 19.9741 27.182 20.818C28.0259 21.6619 28.5 22.8065 28.5 24C28.5 25.1935 28.0259 26.3381 27.182 27.182C26.3381 28.0259 25.1935 28.5 24 28.5C22.8065 28.5 21.6619 28.0259 20.818 27.182C19.9741 26.3381 19.5 25.1935 19.5 24Z" fill="black"/>
<path fill-rule="evenodd" clip-rule="evenodd" d="M4 24C4 27.28 4.85 28.382 6.55 30.592C9.944 35 15.636 40 24 40C32.364 40 38.056 35 41.45 30.592C43.15 28.384 44 27.278 44 24C44 20.72 43.15 19.618 41.45 17.408C38.056 13 32.364 8 24 8C15.636 8 9.944 13 6.55 17.408C4.85 19.62 4 20.722 4 24ZM24 16.5C22.0109 16.5 20.1032 17.2902 18.6967 18.6967C17.2902 20.1032 16.5 22.0109 16.5 24C16.5 25.9891 17.2902 27.8968 18.6967 29.3033C20.1032 30.7098 22.0109 31.5 24 31.5C25.9891 31.5 27.8968 30.7098 29.3033 29.3033C30.7098 27.8968 31.5 25.9891 31.5 24C31.5 22.0109 30.7098 20.1032 29.3033 18.6967C27.8968 17.2902 25.9891 16.5 24 16.5Z" fill="black"/>
<path d="M70.9 23.9C70.9 25.2867 70.6 26.52 70 27.6C69.4133 28.6667 68.56 29.5 67.44 30.1C66.3333 30.7 65.0267 31 63.52 31H58.18V16.86H63.52C65.04 16.86 66.3533 17.1533 67.46 17.74C68.5667 18.3267 69.4133 19.1533 70 20.22C70.6 21.2867 70.9 22.5133 70.9 23.9ZM63.22 27.94C64.5533 27.94 65.5867 27.5867 66.32 26.88C67.0667 26.1733 67.44 25.18 67.44 23.9C67.44 22.62 67.0667 21.6267 66.32 20.92C65.5867 20.2133 64.5533 19.86 63.22 19.86H61.6V27.94H63.22ZM76.418 19.58V22.54H81.198V25.12H76.418V28.26H81.798V31H72.998V16.86H81.798V19.58H76.418ZM94.0502 16.86V19.58H90.2102V31H86.7702V19.58H82.9702V16.86H94.0502ZM99.0617 19.58V22.54H103.842V25.12H99.0617V28.26H104.442V31H95.6417V16.86H104.442V19.58H99.0617ZM113.194 23.78L118.894 31H114.754L109.954 24.66V31H106.534V16.86H109.954V23.08L114.794 16.86H118.894L113.194 23.78ZM130.653 27.02C130.653 27.7667 130.459 28.4533 130.073 29.08C129.699 29.7067 129.139 30.2067 128.393 30.58C127.659 30.9533 126.766 31.14 125.713 31.14C124.126 31.14 122.819 30.7533 121.793 29.98C120.766 29.2067 120.206 28.1267 120.113 26.74H123.753C123.806 27.2733 123.993 27.6933 124.312 28C124.646 28.3067 125.066 28.46 125.573 28.46C126.013 28.46 126.359 28.34 126.613 28.1C126.866 27.86 126.993 27.54 126.993 27.14C126.993 26.78 126.873 26.48 126.633 26.24C126.406 26 126.119 25.8067 125.773 25.66C125.426 25.5 124.946 25.3133 124.333 25.1C123.439 24.7933 122.706 24.5 122.133 24.22C121.573 23.9267 121.086 23.5 120.673 22.94C120.273 22.3667 120.073 21.6267 120.073 20.72C120.073 19.88 120.286 19.1533 120.713 18.54C121.139 17.9267 121.726 17.46 122.473 17.14C123.233 16.8067 124.099 16.64 125.073 16.64C126.646 16.64 127.893 17.0133 128.813 17.76C129.746 18.5067 130.273 19.5333 130.393 20.84H126.693C126.626 20.3733 126.453 20.0067 126.173 19.74C125.906 19.46 125.539 19.32 125.073 19.32C124.673 19.32 124.346 19.4267 124.093 19.64C123.853 19.8533 123.733 20.1667 123.733 20.58C123.733 20.9133 123.839 21.2 124.053 21.44C124.279 21.6667 124.559 21.8533 124.893 22C125.226 22.1467 125.706 22.3333 126.333 22.56C127.239 22.8667 127.979 23.1733 128.553 23.48C129.126 23.7733 129.619 24.2067 130.033 24.78C130.446 25.3533 130.653 26.1 130.653 27.02ZM136.113 16.86V31H132.693V16.86H136.113ZM141.565 27.58V31H138.025V27.58H141.565ZM152.261 28.42H146.961L146.081 31H142.481L147.661 16.96H151.601L156.781 31H153.141L152.261 28.42ZM151.381 25.82L149.621 20.62L147.841 25.82H151.381ZM161.68 16.86V31H158.26V16.86H161.68Z" fill="#070707"/>
</svg>
